<?xml version="1.0" encoding="utf-8"?>
<!-- Generator: Adobe Illustrator 19.2.1, SVG Export Plug-In . SVG Version: 6.00 Build 0)  -->
<svg version="1.1" id="layer" xmlns="http://www.w3.org/2000/svg" xmlns:xlink="http://www.w3.org/1999/xlink" x="0px" y="0px"
	 viewBox="0 0 652 652" style="enable-background:new 0 0 652 652;" xml:space="preserve">
<style type="text/css">
	.st0{fill:#88BB00;}
	.st1{fill:#558800;}
</style>
<g id="Symbols">
	<g id="header-logo-desktop-regions-standard">
		<g id="Regions-Logo">
			<path id="pyramid" class="st0" d="M21,369.5L58.4,319l22.8,50.6H21z M59.8,317.3l18.8-25.6l9.6,77.9L59.8,317.3z M94,270.6
				l14.3,19.2L94,369.6l-14.2-79.8L94,270.6z M100.2,369.6l9.3-78l19,25.6L100.2,369.6z M107.3,369.6l22.5-50.7l37.6,50.7H107.3z"/>
			<g id="regions" transform="translate(47.000000, 7.000000)">
				<path id="R" class="st1" d="M172,324.9c13.8,1,20.1-3.3,20.1-15.1c0-9.1-5.2-14.1-15.1-14.1h-5V324.9 M156,303.5
					c0-5.9-1.4-8.3-9.2-9.7v-2.1h34.5c20.1,0,28.2,7.9,28.2,17.9c0,7.3-4.2,14-14.6,16.9v0.3c8.1,1.8,15.9,24.5,22.5,31
					c1.9,1.8,3.5,2.6,6.6,3v2.1h-21c-7.9-9.2-13.2-25.2-18.7-30.6c-3.2-3.2-5.7-3.3-12.2-3.3v21.9c0,6.3,2.6,9,9.3,10v2.1h-34.5
					v-2.1c6-0.5,9.2-3.4,9.2-9.1V303.5"/>
				<path id="E" class="st1" d="M271.5,343.9h-1.8c-0.7-4.8-3.2-7-7.8-7H252V353c0,5,2.1,6.8,7.7,6.8h3.3c6.9,0,10-5,11.8-10.2h1.6
					l-1.1,13.3h-42.8v-1.6c6.2-1.3,7.1-3.2,7.1-8.8v-35.4c0-4.8-1.2-6.5-7.1-7.6v-1.6h42.1v12.2H273c-1.8-7-3.9-9.1-10.2-9.1H252
					v22.7h9.9c4.5,0,6.6-1.9,7.8-6.9h1.8V343.9"/>
				<path id="G" class="st1" d="M339.4,360.3c-5.4,2.5-13.3,3.9-21.8,3.9c-20.3,0-30.5-14.4-30.5-28.5c0-16.8,13-29.3,30.5-29.3
					c8.5,0,12.4,3.3,16,3.3c1.5,0,2.6-0.5,4-1.9h1.7v15.4h-1.7c-3.4-8.4-10.9-13.7-19.3-13.7c-11.5,0-17.9,10.2-17.9,27.2
					c0,17.6,7.7,24.4,18.1,24.4c5.1,0,8.5-1.3,8.5-5.8v-8.2c0-3.6-1.4-5.9-5.8-6.8v-1.6h23.6v1.6c-4.1,1.1-5.5,3.2-5.5,8.3V360.3"/>
				<path id="I" class="st1" d="M375.5,353.5c0,4.9,1.3,6.3,7.1,7.7v1.6H356v-1.6c6.9-1.7,7.1-3.6,7.1-8.9v-35.2
					c0-4.9-1.2-6.3-7.1-7.7v-1.6h26.6v1.6c-6.7,1.5-7.1,3.6-7.1,8.8V353.5"/>
				<path id="O" class="st1" d="M426,309.5c-11,0-17.1,8.9-17.1,26.3c0,13.3,4.4,25.3,17.1,25.3c9.4,0,17.2-7.2,17.2-25.4
					C443.2,320.3,438.3,309.5,426,309.5 M426,364.3c-17.8,0-30.5-12-30.5-28.8c0-16.8,12.8-29,30.5-29c17.9,0,30.6,12.1,30.6,29
					C456.7,352.2,443.9,364.3,426,364.3"/>
				<path id="N" class="st1" d="M519.9,363.5h-1.8l-40.4-44.7v33.6c0,6,1.8,7.7,8.3,8.7v1.6h-19.4v-1.6c6.1-0.9,7.5-4.1,7.4-9.5
					v-36.8c-4.3-4.3-5.2-5-7.5-5.5v-1.6h16.9l32.8,36.8V320c0-6.7-1.2-9.2-7.1-10.5v-1.6h19v1.6c-6.4,0.4-8.1,4.1-8.1,9V363.5"/>
				<path id="S" class="st1" d="M570.7,320.9h-1.6c-2.1-6.4-8.2-11.4-13.9-11.4c-5.1,0-9.2,3.3-9.2,7.4c0,2.1,1.1,4.1,2.8,5.8
					c2.8,2.7,15.7,9.4,19.1,12.8c4.2,4.1,6.1,7.9,6.1,12.7c0,12.1-11.1,16-18.1,16c-6.7,0-10.8-2.2-13.7-2.2c-1.2,0-2.3,0.7-2.9,1.8
					h-1.6v-16.5h1.6c1.6,8.2,7,13.8,15.1,13.8c6,0,10.4-3.3,10.4-7.8c0-1.8-0.8-4.2-2.9-6.3c-4.3-4.2-14.2-8.3-18.9-12.9
					c-3.4-3.3-5-7.3-5-11.7c0-9.5,7.3-16.1,17.7-16.1c2.1,0,4,0.4,5.7,0.7c1.7,0.4,3.4,0.8,4.8,0.8c0.9,0,1.8-0.5,2.9-1.5h1.6V320.9
					"/>
			</g>
		</g>
	</g>
</g>
</svg>
