<?xml version="1.0" encoding="iso-8859-1"?>
<!-- Uploaded to: SVG Repo, www.svgrepo.com, Generator: SVG Repo Mixer Tools -->
<svg height="800px" width="800px" version="1.1" id="Layer_1" xmlns="http://www.w3.org/2000/svg" xmlns:xlink="http://www.w3.org/1999/xlink" 
	 viewBox="0 0 305.424 305.424" xml:space="preserve">
<g>
	<g id="saving-coin-piggy-bank_1_">
		<circle style="fill:#F78B28;" cx="173.857" cy="129.219" r="18.795"/>
		<circle style="fill:#F8CF26;" cx="65.784" cy="190.304" r="4.699"/>
		<path style="fill:#F78B28;" d="M145.664,180.906h56.386c2.589,0,4.699-2.105,4.699-4.699s-2.11-4.699-4.699-4.699h-56.386
			c-2.589,0-4.699,2.105-4.699,4.699S143.075,180.906,145.664,180.906z"/>
		<path style="fill:#F8CF26;" d="M108.073,148.014v-4.699c0-16.545-12.273-30.27-28.193-32.558v37.257
			c0,2.598-2.105,4.699-4.699,4.699c-23.316,0-42.29,18.969-42.29,42.29v4.699c0,2.598-2.105,4.699-4.699,4.699h-9.398
			c-2.589,0-4.699,2.105-4.699,4.699v18.795c0,2.594,2.11,4.699,4.699,4.699h9.398c2.594,0,4.699,2.1,4.699,4.699
			c0,23.32,18.974,42.29,42.29,42.29c2.594,0,4.699,2.1,4.699,4.699v9.398c0,2.594,2.11,4.699,4.699,4.699h18.795
			c2.589,0,4.699-2.105,4.699-4.699v-9.398c0-2.598,2.105-4.699,4.699-4.699h84.579c2.594,0,4.699,2.1,4.699,4.699v9.398
			c0,2.594,2.11,4.699,4.699,4.699h18.795c2.589,0,4.699-2.105,4.699-4.699v-9.398c0-2.598,2.105-4.699,4.699-4.699
			c23.316,0,42.29-18.969,42.29-42.29v-42.29c0-23.32-18.974-42.29-42.29-42.29H189.41c-4.464,2.965-9.806,4.699-15.553,4.699
			s-11.089-1.734-15.553-4.699h-45.532C110.178,152.713,108.073,150.613,108.073,148.014z M65.784,204.4
			c-7.772,0-14.097-6.325-14.097-14.097s6.325-14.096,14.097-14.096s14.097,6.325,14.097,14.096S73.556,204.4,65.784,204.4z
			 M145.664,162.111h56.386c7.772,0,14.097,6.325,14.097,14.097s-6.325,14.096-14.097,14.096h-56.386
			c-7.772,0-14.096-6.325-14.096-14.096C131.567,168.435,137.892,162.111,145.664,162.111z"/>
		<polygon style="fill:#FFFFFF;" points="305.424,11.748 305.424,54.038 202.05,54.038 211.448,82.231 197.351,105.725 
			192.652,110.424 183.255,105.725 187.953,101.026 197.351,82.231 197.351,68.134 183.255,54.038 164.459,54.038 150.363,68.134 
			150.363,86.929 164.459,105.725 155.062,110.424 140.965,96.327 136.266,77.532 145.664,54.038 103.374,54.038 98.676,49.339 
			98.676,16.447 108.073,11.748 		"/>
		<path d="M101.025,11.748h199.7V2.35h-199.7c-6.475,0-11.747,5.267-11.747,11.747c0,2.655,0.916,5.079,2.411,7.048
			c-1.494,1.969-2.411,4.393-2.411,7.048s0.916,5.079,2.411,7.048c-1.494,1.969-2.411,4.393-2.411,7.048
			c0,6.48,5.272,11.747,11.747,11.747h30.895c-3.327,6.019-5.051,12.663-5.051,19.594c0,13.288,6.155,25.557,16.883,33.667
			c0.691,0.522,1.433,0.926,2.194,1.259c-3.134,4.544-4.981,10.037-4.981,15.962c0,5.136,1.405,9.943,3.815,14.097h-32.008
			c0-23.32-18.974-42.29-42.29-42.29c-2.594,0-4.699,2.1-4.699,4.699v37.802c-26.309,2.382-46.988,24.556-46.988,51.476h-4.699
			C6.325,190.304,0,196.628,0,204.4v18.795c0,7.772,6.325,14.096,14.097,14.096h4.91c2.241,24.763,22.014,44.54,46.777,46.777v4.91
			c0,7.772,6.325,14.096,14.097,14.096h18.795c7.772,0,14.097-6.325,14.097-14.096v-4.699h75.181v4.699
			c0,7.772,6.325,14.096,14.096,14.096h18.795c7.772,0,14.097-6.325,14.097-14.096v-4.91c26.309-2.382,46.988-24.556,46.988-51.476
			v-42.29c0-10.149-2.984-19.594-8.054-27.592l16.075-16.075l-6.644-6.644l-15.22,15.22c-9.449-10.178-22.893-16.596-37.844-16.596
			h-36.707c2.411-4.154,3.815-8.961,3.815-14.097c0-5.925-1.847-11.423-4.981-15.967c0.766-0.338,1.513-0.738,2.194-1.255
			c10.727-8.11,16.883-20.379,16.883-33.667c0-6.931-1.729-13.575-5.051-19.594h94.329v-9.398H197.351
			c-1.847,0-3.524,1.081-4.285,2.768c-0.761,1.682-0.46,3.651,0.761,5.037c5.455,6.193,8.223,13.316,8.223,21.187
			c0,10.314-4.793,19.857-13.152,26.173c-0.277,0.207-0.587,0.31-0.935,0.31c-0.235,0-0.832-0.061-1.259-0.62
			c-0.517-0.686-0.385-1.673,0.305-2.194c7.57-5.718,11.912-14.35,11.912-23.673c0-16.408-13.349-29.758-29.758-29.758
			s-29.758,13.349-29.758,29.758c0,9.322,4.342,17.954,11.912,23.673c0.686,0.517,0.822,1.504,0.305,2.19
			c-0.526,0.691-1.508,0.841-2.199,0.305c-8.364-6.306-13.157-15.849-13.157-26.163c0-7.875,2.768-14.999,8.223-21.187
			c1.222-1.381,1.518-3.355,0.761-5.037s-2.439-2.768-4.285-2.768h-39.94c-1.297,0-2.349-1.057-2.349-2.349s1.053-2.349,2.349-2.349
			h72.832v-9.398h-72.832c-1.297,0-2.349-1.057-2.349-2.349s1.053-2.349,2.349-2.349h72.832v-9.398h-72.832
			c-1.297,0-2.349-1.057-2.349-2.349S99.728,11.748,101.025,11.748z M187.953,124.52c0,10.366-8.43,18.795-18.795,18.795
			c-10.366,0-18.795-8.43-18.795-18.795s8.43-18.795,18.795-18.795C179.524,105.725,187.953,114.154,187.953,124.52z
			 M272.532,190.304v42.29c0,23.32-18.974,42.29-42.29,42.29c-2.594,0-4.699,2.1-4.699,4.699v9.398c0,2.594-2.11,4.699-4.699,4.699
			H202.05c-2.589,0-4.699-2.105-4.699-4.699v-9.398c0-2.598-2.105-4.699-4.699-4.699h-84.579c-2.594,0-4.699,2.1-4.699,4.699v9.398
			c0,2.594-2.11,4.699-4.699,4.699H79.88c-2.589,0-4.699-2.105-4.699-4.699v-9.398c0-2.598-2.105-4.699-4.699-4.699
			c-23.316,0-42.29-18.969-42.29-42.29c0-2.598-2.105-4.699-4.699-4.699h-9.398c-2.589,0-4.699-2.105-4.699-4.699v-18.795
			c0-2.594,2.11-4.699,4.699-4.699h9.398c2.594,0,4.699-2.1,4.699-4.699v-4.699c0-23.32,18.974-42.29,42.29-42.29
			c2.594,0,4.699-2.1,4.699-4.699v-37.257c15.92,2.284,28.193,16.014,28.193,32.558v4.699c0,2.598,2.105,4.699,4.699,4.699h45.532
			c4.464,2.965,9.806,4.699,15.553,4.699s11.089-1.734,15.553-4.699h45.532C253.559,148.014,272.532,166.983,272.532,190.304z
			 M148.798,73.632c0-11.23,9.135-20.36,20.36-20.36c11.226,0,20.36,9.13,20.36,20.36c0,6.353-2.979,12.245-8.176,16.173
			c-2.537,1.917-3.971,4.736-4.262,7.673c-2.514-0.738-5.169-1.151-7.922-1.151s-5.404,0.413-7.922,1.151
			c-0.291-2.941-1.724-5.756-4.262-7.673C151.777,85.877,148.798,79.98,148.798,73.632z"/>
		<path d="M61.085,171.508c-7.772,0-14.097,6.325-14.097,14.096c0,7.772,6.325,14.097,14.097,14.097s14.097-6.325,14.097-14.097
			C75.181,177.833,68.857,171.508,61.085,171.508z M61.085,190.304c-2.589,0-4.699-2.105-4.699-4.699s2.11-4.699,4.699-4.699
			s4.699,2.105,4.699,4.699S63.674,190.304,61.085,190.304z"/>
		<path d="M140.965,157.412c-7.772,0-14.097,6.325-14.097,14.097s6.325,14.096,14.097,14.096h56.386
			c7.772,0,14.097-6.325,14.097-14.096s-6.325-14.097-14.097-14.097H140.965z M202.05,171.508c0,2.594-2.11,4.699-4.699,4.699
			h-56.386c-2.589,0-4.699-2.105-4.699-4.699s2.11-4.699,4.699-4.699h56.386C199.94,166.81,202.05,168.915,202.05,171.508z"/>
	</g>
	<g id="Layer_1_23_">
	</g>
</g>
</svg>